<?xml version="1.0" standalone="no"?><!DOCTYPE svg PUBLIC "-//W3C//DTD SVG 1.1//EN" "http://www.w3.org/Graphics/SVG/1.1/DTD/svg11.dtd"><svg class="icon" width="32px" height="32.00px" viewBox="0 0 1024 1024" version="1.1" xmlns="http://www.w3.org/2000/svg"><path fill="#ffffff" d="M965.213 922.599l-148.659-148.647c-1.501-1.501-3.428-2.164-5.092-3.381 144.754-172.944 136.125-431.612-26.34-594.078-83.242-83.228-193.91-129.070-311.613-129.070-117.715 0-228.384 45.843-311.612 129.071-171.831 171.831-171.831 451.419 0 623.226 83.228 83.255 193.897 129.098 311.612 129.098 104.51 0 203.353-36.297 282.482-102.666 1.205 1.641 1.854 3.542 3.338 5.025l148.66 148.646c7.904 7.904 18.258 11.856 28.612 11.856s20.722-3.952 28.612-11.856c15.809-15.808 15.809-41.417 0-57.225zM473.509 847.881c-96.098 0-186.441-37.438-254.389-105.385-140.269-140.269-140.269-368.481 0-508.776 67.948-67.948 158.29-105.36 254.389-105.36 96.085 0 186.441 37.413 254.389 105.359 140.269 140.295 140.269 368.508 0 508.776-67.961 67.948-158.302 105.386-254.389 105.386z" /></svg>